<?xml version="1.0" standalone="no"?>
<!DOCTYPE svg PUBLIC "-//W3C//DTD SVG 20010904//EN"
 "http://www.w3.org/TR/2001/REC-SVG-20010904/DTD/svg10.dtd">
<svg version="1.0" xmlns="http://www.w3.org/2000/svg"
 width="500.000000pt" height="500.000000pt" viewBox="0 0 500.000000 500.000000"
 preserveAspectRatio="xMidYMid meet">

<g transform="translate(0.000000,500.000000) scale(0.100000,-0.100000)"
fill="#000000" stroke="none">
<path d="M1903 3443 c0 -10 4 -23 9 -30 7 -8 4 -20 -6 -35 -20 -28 -21 -62 -2
-81 8 -8 11 -18 7 -23 -12 -13 -1 -85 11 -78 6 4 6 -2 -1 -14 -16 -30 -19
-108 -3 -104 20 4 15 -65 -5 -77 -16 -9 -16 -11 -2 -28 16 -17 18 -41 6 -73
-3 -8 -8 -28 -11 -45 -3 -16 -9 -41 -12 -55 -7 -22 -6 -24 9 -11 18 14 17 16
22 -29 1 -8 -3 -20 -8 -27 -5 -7 -4 -33 2 -63 6 -28 9 -63 5 -78 -5 -25 -4
-25 7 -7 7 10 16 33 19 50 6 25 9 27 15 12 4 -10 1 -31 -8 -49 -9 -18 -13 -36
-11 -40 3 -4 1 -8 -4 -8 -5 0 -8 -20 -8 -44 1 -31 4 -42 12 -35 13 10 24 2 24
-18 0 -8 -5 -11 -11 -7 -8 4 -9 0 -4 -15 5 -15 2 -21 -9 -21 -12 0 -16 -10
-16 -40 0 -22 5 -40 10 -40 10 0 14 19 11 53 -1 9 3 17 10 17 16 0 5 -90 -12
-101 -11 -6 -11 -11 -1 -21 6 -6 11 -21 11 -33 -1 -16 -2 -17 -6 -2 -7 27 -24
20 -18 -8 3 -14 7 -36 10 -50 3 -13 0 -45 -5 -71 -8 -33 -8 -50 0 -58 7 -7 10
1 10 27 0 20 5 37 10 37 14 0 13 -53 -2 -85 -9 -20 -9 -31 0 -45 10 -16 8 -26
-9 -57 -12 -21 -15 -31 -7 -22 11 13 15 14 26 3 13 -14 6 -44 -11 -44 -7 0 -7
-4 1 -12 15 -15 16 -69 1 -101 -9 -20 -8 -30 7 -53 19 -27 19 -28 -4 -22 -18
5 -20 3 -12 -12 5 -9 6 -20 3 -24 -3 -3 -1 -6 4 -6 23 0 134 122 162 179 59
117 73 186 78 408 5 181 7 203 23 208 10 3 29 1 42 -4 22 -8 27 -6 38 17 11
26 11 26 -7 9 -11 -9 -26 -17 -34 -17 -8 0 -10 3 -4 8 20 14 35 51 24 57 -7 5
-6 11 2 21 9 11 8 14 -2 14 -11 0 -11 2 1 10 8 5 11 10 7 10 -4 0 -3 8 2 19 8
15 5 24 -14 45 -24 26 -24 27 -5 46 22 22 26 40 10 40 -13 0 -13 43 1 57 7 7
7 13 1 17 -6 3 -13 2 -17 -4 -10 -16 -28 -12 -22 4 4 9 -2 17 -13 21 -12 4
-22 19 -26 42 -8 41 2 444 12 485 7 28 25 52 66 82 54 40 30 46 -181 46 -181
0 -198 -1 -198 -17z m377 -7 c0 -2 -7 -6 -15 -10 -8 -3 -15 -1 -15 4 0 6 7 10
15 10 8 0 15 -2 15 -4z m-354 -101 c-7 -29 -26 -34 -26 -7 0 18 20 45 28 37 2
-2 2 -16 -2 -30z m24 -344 c0 -6 -4 -13 -10 -16 -5 -3 -10 1 -10 9 0 9 5 16
10 16 6 0 10 -4 10 -9z m1 -118 c-12 -20 -14 -14 -5 12 4 9 9 14 11 11 3 -2 0
-13 -6 -23z m-1 -157 c0 -8 -4 -18 -10 -21 -5 -3 -10 3 -10 14 0 12 5 21 10
21 6 0 10 -6 10 -14z m267 -88 c-3 -8 -6 -5 -6 6 -1 11 2 17 5 13 3 -3 4 -12
1 -19z m53 -23 c0 -8 -4 -15 -10 -15 -5 0 -10 7 -10 15 0 8 5 15 10 15 6 0 10
-7 10 -15z m-300 -74 c0 -6 -4 -13 -10 -16 -5 -3 -10 1 -10 9 0 9 5 16 10 16
6 0 10 -4 10 -9z m290 -23 c0 -16 -3 -19 -11 -11 -6 6 -8 16 -5 22 11 17 16
13 16 -11z m-280 -312 c0 -3 -4 -8 -10 -11 -5 -3 -10 -1 -10 4 0 6 5 11 10 11
6 0 10 -2 10 -4z m15 -455 c-3 -6 -11 -8 -17 -5 -6 4 -5 9 3 15 16 10 23 4 14
-10z"/>
<path d="M430 3114 c-115 -26 -196 -52 -310 -96 -105 -41 -106 -49 -3 -22 90
25 275 53 377 57 45 2 60 7 69 22 16 29 18 48 4 57 -16 10 -17 10 -137 -18z"/>
<path d="M2290 2735 c0 -8 2 -15 4 -15 2 0 6 7 10 15 3 8 1 15 -4 15 -6 0 -10
-7 -10 -15z"/>
<path d="M3860 2670 c0 -6 -5 -8 -10 -5 -9 5 -186 -47 -215 -64 -5 -3 -14 -6
-20 -6 -11 0 -15 -8 -15 -31 0 -8 4 -13 9 -10 5 4 7 -3 4 -13 -4 -16 0 -19 18
-18 46 5 189 90 189 113 0 8 5 14 11 14 5 0 7 -5 3 -11 -5 -8 -1 -8 14 0 27
14 35 28 22 36 -5 3 -10 1 -10 -5z"/>
<path d="M3580 2440 c0 -11 7 -23 16 -27 13 -5 14 -15 9 -57 -7 -46 -6 -49 9
-37 20 17 20 44 0 98 -18 46 -34 56 -34 23z"/>
<path d="M3635 2400 c25 -50 26 -52 8 -68 -11 -10 -17 -27 -15 -42 2 -23 2
-24 -12 -7 -23 29 -30 1 -10 -41 9 -20 24 -42 32 -48 11 -8 12 -13 4 -18 -15
-9 -16 -46 -2 -46 17 0 11 -63 -10 -97 -19 -33 -19 -33 1 -43 28 -15 23 -66
-6 -63 -14 1 -12 -2 7 -9 34 -14 45 -38 18 -38 -11 0 -20 -4 -20 -10 0 -5 7
-10 16 -10 11 0 14 -5 10 -16 -3 -8 -1 -24 5 -35 8 -16 13 -18 25 -8 12 10 13
9 8 -6 -5 -12 -4 -16 4 -11 16 10 123 236 116 247 -3 5 0 9 6 9 6 0 8 10 4 25
-5 20 -3 24 9 19 11 -4 15 4 15 35 1 28 9 52 28 76 22 29 23 35 10 35 -10 0
-14 4 -11 10 3 6 -1 7 -10 4 -13 -5 -14 -2 -5 21 13 34 13 65 0 65 -5 0 -11
-12 -11 -27 -2 -25 -2 -25 -6 -5 -5 24 14 55 27 47 5 -3 8 8 8 24 -1 17 -4 29
-7 27 -3 -2 -26 -45 -51 -95 -24 -50 -49 -91 -56 -91 -17 0 -26 14 -83 127
-29 56 -57 105 -62 109 -6 3 1 -17 16 -46z"/>
<path d="M3618 2114 c-5 -4 -8 -17 -8 -30 0 -12 -6 -25 -12 -27 -8 -3 -6 -6 5
-6 10 -1 20 5 23 13 8 20 1 60 -8 50z"/>
<path d="M1935 1970 c-3 -5 -1 -10 4 -10 6 0 11 5 11 10 0 6 -2 10 -4 10 -3 0
-8 -4 -11 -10z"/>
<path d="M1930 1816 c0 -20 5 -36 10 -36 6 0 10 13 10 29 0 17 -4 33 -10 36
-6 4 -10 -8 -10 -29z"/>
</g>
</svg>
