<svg version="1.1" xmlns="http://www.w3.org/2000/svg" xmlns:xlink="http://www.w3.org/1999/xlink" width="800px" height="800px" viewBox="0,0,256,256"><g fill="#ffffff" fill-rule="nonzero" stroke="none" stroke-width="1" stroke-linecap="butt" stroke-linejoin="miter" stroke-miterlimit="10" stroke-dasharray="" stroke-dashoffset="0" font-family="none" font-weight="none" font-size="none" text-anchor="none" style="mix-blend-mode: normal"><g transform="translate(0.27957,1.48262) scale(0.2471,0.2471)"><path d="M719.42608,455.24582h234.19746v73.72428h-234.19746zM960.25873,580.45422v68.68645h-87.60902v-99.52778h-73.72428v100.38789c-105.76687,8.32859 -187.38436,96.52468 -187.50541,202.61889h92.52397c0,-61.07519 49.51123,-110.58642 110.58642,-110.58642h145.48258v82.69407h73.72428v-244.27311h-73.72428zM610.68277,973.5275c-0.89709,17.72173 8.04701,34.49503 23.26237,43.62505c15.21537,9.13002 34.22432,9.13002 49.43969,0c15.21537,-9.13002 24.15946,-25.90331 23.26237,-43.62505c0,-26.54074 -48.04366,-104.93422 -48.04365,-104.93422c0,0 -47.92078,78.51636 -47.92078,104.93422zM130.00048,762.92181h79.86797v45.09468h-79.86797zM130.00048,688.82891h79.86797v45.09468h-79.86797zM130.00048,837.13758h79.86797v45.09468h-79.86797zM902.01655,252.50406l-222.89307,-242.06138c-7.4061,-7.40948 -17.69752,-11.1845 -28.1381,-10.3214h-15.35922l-496.90164,274.99156l-93.38409,105.91721c-5.38746,5.37151 -8.41545,12.66642 -8.41545,20.27418c0,7.60775 3.02799,14.90267 8.41545,20.27418c3.46081,3.47246 7.66106,6.11862 12.28738,7.74105v99.15915c-38.05589,15.43932 -58.73917,56.72636 -48.31828,96.45077c10.4209,39.72441 48.70768,65.54183 89.44187,60.31217c40.73419,-5.22967 71.25764,-39.88131 71.30593,-80.9498h-61.4369c-0.06776,11.18087 -9.17461,20.19625 -20.3556,20.15114c-11.18099,-0.04511 -20.2148,-9.13367 -20.19234,-20.31472c0.02245,-11.18106 9.09269,-20.23326 20.27376,-20.23347h30.71845v-149.16879l98.29904,9.09266h140.93625v29.73546c1.35565,27.30978 23.19135,49.14548 50.50113,50.50113h57.87356v376.36244h-127.78875v-408.80112h-147.44856v73.72428h73.72428v362.4777h-191.43738v-182.71334h-73.72428v256.43762h578.73559c-3.15792,-8.96093 -4.77811,-18.39127 -4.79208,-27.89235c0,-18.67682 11.30439,-46.69204 24.57476,-73.72428h-56.52195v-65.61461h33.2988c1.97955,-26.03924 8.24866,-51.57235 18.55394,-75.56739h-51.85274v-70.52956h71.2668v35.01903c18.03537,-27.85828 41.5769,-51.73432 69.17795,-70.16094v-235.18045h226.9479c1.62579,-3.89689 2.50124,-8.06569 2.58035,-12.28738v-125.33127c0.88258,-10.26393 -2.75131,-20.40293 -9.95278,-27.76948zM190.08576,376.97521h-58.85655l58.85655,-58.85655zM319.71762,376.97521h-71.14393v-58.85655h71.14393zM311.48508,248.94072l244.88748,-132.08933l-78.27061,132.08933zM389.01844,373.90337v-55.7847h64.50874zM613.26312,618.79085h-71.2668v-88.34626h71.2668zM613.26312,451.06811h-166.86262v-40.05686l80.85096,-73.72428h86.01166v113.41251zM613.26312,248.81784h-49.14952l49.14952,-78.51636zM728.02725,376.85234h-39.19674v-58.85655h39.19674zM682.44107,248.81784v-122.13655l112.67527,122.13655zM842.79138,376.85234h-45.21756v-58.85655h45.58618v58.85655z"></path></g></g></svg>