<svg version="1.1" xmlns="http://www.w3.org/2000/svg" xmlns:xlink="http://www.w3.org/1999/xlink" width="800px" height="800px" viewBox="0,0,256,256"><g fill="#ffffff" fill-rule="nonzero" stroke="none" stroke-width="1" stroke-linecap="butt" stroke-linejoin="miter" stroke-miterlimit="10" stroke-dasharray="" stroke-dashoffset="0" font-family="none" font-weight="none" font-size="none" text-anchor="none" style="mix-blend-mode: normal"><g transform="translate(-0.00334,-0.00167) scale(3.34164,3.34164)"><g><g><path d="M57.455,16.575c0,1.12 1.121,2.24 2.688,2.24c2.239,0 2.911,-0.896 2.911,-2.24c0,-0.224 0,-0.224 0,-0.447c-0.223,-0.672 -0.896,-1.12 -1.566,-1.568c-0.225,0 -0.672,-0.224 -1.119,-0.224c-1.57,0.001 -2.914,0.896 -2.914,2.239z"></path><path d="M62.16,9.183c-0.226,-1.344 -1.121,-2.464 -2.24,-2.464c-1.121,0 -1.793,1.12 -1.567,2.464c0.226,1.344 1.119,2.464 2.239,2.464c0.896,0 1.791,-1.12 1.568,-2.464z"></path><path d="M52.08,25.983l3.808,-3.808c2.239,1.792 4.93,2.912 7.841,2.912c6.943,0 12.544,-5.601 12.544,-12.544c-0.002,-6.944 -5.601,-12.543 -12.545,-12.543c-6.942,0 -12.544,5.6 -12.544,12.544c0,3.136 1.119,5.823 2.912,7.84l-3.809,3.809c0.672,0.671 1.344,1.344 1.793,1.79zM65.744,8.511h2.463v-2.463h0.896v2.464h2.465v0.896h-2.465v2.465h-0.896v-2.466h-2.463v-0.896zM60.144,12.767c0,-0.224 0,-0.448 0.226,-0.672c-0.226,0 -0.226,0 -0.447,0c-1.793,0 -3.137,-1.344 -3.137,-2.912c0,-1.568 1.791,-2.912 3.584,-2.912h4.03l-0.896,0.672h-1.344c0.896,0.225 1.344,1.345 1.344,2.464c0,0.896 -0.448,1.568 -1.121,2.24c-0.672,0.448 -0.896,0.672 -0.896,1.12c0,0.448 0.673,1.12 1.12,1.344c1.119,0.672 1.344,1.568 1.344,2.688c0,1.567 -1.344,2.912 -4.031,2.912c-2.239,0 -4.256,-0.896 -4.256,-2.464c0,-1.568 1.791,-2.912 4.031,-2.912c0.225,0 0.447,0 0.672,0c0,-0.671 -0.223,-1.119 -0.223,-1.568z"></path><path d="M63.728,51.52c-2.911,0 -5.823,1.119 -7.841,2.912l-3.807,-3.809c-0.449,0.672 -1.121,1.118 -1.568,1.566l3.809,3.809c-1.792,2.238 -2.912,4.929 -2.912,7.841c0,6.943 5.602,12.544 12.545,12.544c6.942,0 12.545,-5.601 12.545,-12.544c-0.228,-6.944 -5.827,-12.319 -12.771,-12.319zM60.144,69.664h-2.464v-7.841h2.464zM59.024,60.705v0c-0.896,0 -1.567,-0.673 -1.567,-1.346c0,-0.672 0.672,-1.344 1.567,-1.344c0.895,0 1.567,0.672 1.567,1.344c-0.224,0.897 -0.671,1.346 -1.567,1.346zM70.224,69.664h-2.912v-4.031c0,-1.119 -0.447,-1.792 -1.345,-1.792c-0.672,0 -1.119,0.448 -1.344,0.896c0,0.227 0,0.449 0,0.673v4.257h-2.688c0,0 0,-7.168 0,-7.841h2.688v1.12c0.225,-0.447 1.121,-1.344 2.465,-1.344c1.791,0 3.136,1.119 3.136,3.584v4.478z"></path><path d="M24.304,50.625l-3.808,3.809c-2.24,-1.793 -4.928,-2.912 -7.84,-2.912c-6.944,0 -12.544,5.602 -12.544,12.543c0,6.944 5.6,12.545 12.544,12.545c6.943,0 12.544,-5.601 12.544,-12.545c0,-2.912 -1.12,-5.823 -2.912,-7.84l3.808,-3.809c-0.672,-0.673 -1.344,-1.346 -1.792,-1.791zM18.033,62.048c0,3.808 -2.912,8.063 -8.064,8.063c-1.567,0 -3.136,-0.448 -4.256,-1.346c0.224,0 0.448,0 0.672,0c1.344,0 2.464,-0.447 3.584,-1.119c-1.12,0 -2.24,-0.896 -2.688,-2.017c0.224,0 0.447,0 0.447,0c0.225,0 0.448,0 0.673,0c-1.345,-0.226 -2.24,-1.344 -2.24,-2.688v0c0.448,0.225 0.896,0.447 1.344,0.447c-0.672,-0.447 -1.344,-1.344 -1.344,-2.24c0,-0.446 0.224,-0.896 0.448,-1.344c1.344,1.793 3.359,2.912 5.823,2.912c0,-0.226 0,-0.447 0,-0.672c0,-1.568 1.345,-2.912 2.912,-2.912c0.896,0 1.568,0.447 2.017,0.896c0.672,-0.225 1.344,-0.448 1.792,-0.672c-0.225,0.672 -0.673,1.119 -1.345,1.566c0.672,0 1.12,-0.225 1.568,-0.447c-0.448,0.672 -0.896,1.119 -1.344,1.344c0.001,0.004 0.001,0.004 0.001,0.229z"></path><path d="M12.656,25.088c2.912,0 5.823,-1.12 7.84,-2.912l3.808,3.808c0.448,-0.672 1.12,-1.119 1.568,-1.567l-3.809,-3.808c1.792,-2.24 2.912,-4.928 2.912,-7.84c0,-6.944 -5.6,-12.544 -12.544,-12.544c-6.943,0 -12.319,5.6 -12.319,12.544c0,6.718 5.6,12.319 12.544,12.319zM9.744,10.527h1.344v-1.344c0,-1.792 0.672,-2.912 2.912,-2.912h1.792v2.24h-1.12c-0.896,0 -0.896,0.224 -0.896,0.896v1.12h2.016l-0.224,2.24h-2.018v6.272h-2.688v-6.272h-1.343v-2.24z"></path><g><path d="M49.617,44.575c-0.226,-0.446 -0.673,-0.673 -0.896,-0.673c-2.016,-0.672 -3.807,-1.118 -5.823,-1.791c-0.224,0 -0.672,-0.447 -0.672,-1.344c0,-0.449 0,-0.673 -0.447,-0.673c-0.226,0 0,0 -0.226,-0.224c-0.223,-0.896 -0.223,-1.345 -0.223,-1.568c0,-0.223 0.223,-0.225 0.223,-0.448c0.673,-0.896 0.896,-2.239 0.896,-2.688c0,0 0.225,0 0.225,-0.225c0.224,-0.448 0.224,-0.448 0.224,-1.121c0.226,-0.446 0.226,-1.118 -0.224,-1.118c-0.225,0.224 -0.225,0 -0.225,-0.448v-2.688c0,-0.896 -0.673,-1.567 -1.119,-1.791c-0.674,-0.449 -0.896,-0.673 -1.121,-0.673c-0.225,-0.224 -0.225,-0.448 0,-0.672c0.224,-0.223 0.447,-0.223 0.447,-0.448c0,0 0,0 -0.225,0c-0.225,0 -1.567,0.226 -2.239,0.448c-1.12,0.224 -2.24,0.672 -3.137,1.345c-0.672,0.447 -1.12,1.119 -1.12,2.017c0,0.446 0,1.791 0,2.688c0,0.226 0,0.448 -0.224,0.226c-0.672,0 -0.224,0.896 -0.224,1.118c0,0.448 0.224,0.673 0.447,1.121c0,0.225 0.225,0.225 0.225,0.225c0.224,0.672 0.448,2.016 0.896,2.688c0,0 0.225,0.225 0.225,0.448c0,0.448 0,1.12 -0.225,1.568c0,0 0,0.225 -0.224,0.225c-0.448,0 -0.448,0.224 -0.448,0.672c0,0.672 -0.448,1.345 -0.672,1.345c-1.12,0.446 -4.479,1.567 -5.6,1.791c-0.672,0.226 -0.896,0.448 -1.12,0.672l-1.12,2.688c4.479,0 6.72,2.688 11.424,3.584h2.24c4.704,-0.672 8.063,-3.584 11.2,-3.584z"></path></g></g></g></g></g></svg>