<svg version="1.1" xmlns="http://www.w3.org/2000/svg" xmlns:xlink="http://www.w3.org/1999/xlink" width="24px" height="24px" viewBox="0,0,256,256"><g fill="none" fill-rule="nonzero" stroke="none" stroke-width="1" stroke-linecap="butt" stroke-linejoin="miter" stroke-miterlimit="10" stroke-dasharray="" stroke-dashoffset="0" font-family="none" font-weight="none" font-size="none" text-anchor="none" style="mix-blend-mode: normal"><g transform="scale(10.66667,10.66667)"><g fill="#ffffff"><path d="M20,7.4v10.5c0,1.7 -1.3,3 -3,3h-11.1c0,1.1 0.9,2 2,2h10.1c2.2,0 4,-1.8 4,-4v-9.5c0,-1.1 -0.9,-2 -2,-2z"></path><g><path d="M5,1.1v2h-1c-1.1,0 -2,0.9 -2,2v12c0,1.1 0.9,2 2,2h12.2c1.1,0 2,-0.9 2,-2v-12c0,-1.1 -0.9,-2 -2,-2h-1v-2h-2v2h-6.2v-2c0,0 -2,0 -2,0zM4,8.1h12.2v9h-12.2z"></path><path d="M13.7,16.3l-2.4,-1.4l-2.3,1.4l0.6,-2.7l-2.1,-1.8l2.8,-0.2l1.1,-2.6l1.1,2.5l2.8,0.3l-2.1,1.8z"></path></g></g><rect x="0" y="0" width="24" height="24" fill="none"></rect></g></g></svg>