<svg version="1.1" xmlns="http://www.w3.org/2000/svg" xmlns:xlink="http://www.w3.org/1999/xlink" width="800px" height="800px" viewBox="0,0,256,256"><g fill="#ffffff" fill-rule="nonzero" stroke="none" stroke-width="1" stroke-linecap="butt" stroke-linejoin="miter" stroke-miterlimit="10" stroke-dasharray="" stroke-dashoffset="0" font-family="none" font-weight="none" font-size="none" text-anchor="none" style="mix-blend-mode: normal"><g transform="translate(0.00102,0) scale(2.04111,2.04111)"><g><g><circle cx="62.267" cy="13.981" r="13.981"></circle><path d="M67.729,42.457h3.487c1.123,0 2.104,0.644 2.564,1.624c6.922,2.661 8.561,11.137 8.889,16.453h7.564c-3.293,-15.3 -11.923,-27.757 -24.292,-31.834l-3.484,3.506l-3.376,-3.544c-0.013,0.003 -0.022,0.003 -0.035,0.006c-1.728,0.414 -19.902,8.468 -23.857,31.865h11.149c0.568,-2.369 1.171,-4.448 1.81,-6.255v6.255h30.043c0.081,-3.483 -1.177,-6.797 -1.391,-7.332c0.043,0.115 -1.752,-4.108 -4.672,-5.22c-0.295,0.104 -0.601,0.155 -0.912,0.155h-3.487c-1.565,0 -2.841,-1.274 -2.841,-2.84c0.001,-1.565 1.274,-2.839 2.841,-2.839zM65.863,55.263l-3.373,4.614h-0.065l-3.37,-4.614l3.37,-22.538h0.065z"></path><rect x="29.486" y="62.014" width="66.449" height="7.237"></rect><path d="M39.552,125.422h46.319l4.596,-54.526h-55.511z"></path></g></g></g></g></svg>