<svg version="1.1" xmlns="http://www.w3.org/2000/svg" xmlns:xlink="http://www.w3.org/1999/xlink" width="800px" height="800px" viewBox="0,0,256,256"><g fill="#ffffff" fill-rule="nonzero" stroke="none" stroke-width="1" stroke-linecap="butt" stroke-linejoin="miter" stroke-miterlimit="10" stroke-dasharray="" stroke-dashoffset="0" font-family="none" font-weight="none" font-size="none" text-anchor="none" style="mix-blend-mode: normal"><g transform="translate(0.00019,0.00004) scale(0.60952,0.60952)"><g><g><path d="M378.521,41.481c-55.31,-55.308 -145.294,-55.308 -200.597,-0.002c-48.738,48.741 -54.51,124.425 -17.34,179.556l-152.633,152.637c-10.604,10.603 -10.596,27.786 0,38.381c10.592,10.594 27.777,10.601 38.379,0l152.637,-152.638c55.13,37.167 130.81,31.398 179.551,-17.343c55.306,-55.306 55.31,-145.283 0.003,-200.591zM355.855,209.585c-3.015,-8.054 -5.388,-13.708 -5.388,-13.708c-1.711,-4.091 -5.84,-6.344 -9.758,-8.324l-26.562,-12.229l-12.763,-10.762l-20.506,20.396l8.857,59.206c-6.689,0.745 -13.437,0.838 -20.14,0.28l8.896,-59.486l-20.504,-20.396l-12.762,10.762l-26.564,12.23c-3.959,1.745 -7.648,3.698 -9.756,8.324c0,0 -2.834,6.75 -6.242,16.012c-37.496,-40.373 -36.613,-103.721 2.666,-143c40.195,-40.192 105.594,-40.19 145.779,0c38.537,38.534 40.119,100.25 4.747,140.695z"></path><path d="M278.939,162.501c26.26,0 45.854,-24.467 46.299,-65.494c0.283,-28.467 -13.277,-45.506 -46.299,-45.506c-33.023,0 -46.587,17.039 -46.302,45.506c0.449,41.027 20.042,65.494 46.302,65.494z"></path></g></g></g></g></svg>